<svg id="combined_logo" width="120" height="120" version="1.1" viewBox="10 306 120 120" xml:space="preserve" xmlns="http://www.w3.org/2000/svg"><g id="cuboctahedorn" transform="translate(5.9,5.1)"><path class="st0" d="m25.8 401.4c-1.8-0.6-3.6-2.5-4.1-4.4l-11.6-50.7c-0.4-1.8 0.4-4.4 1.8-5.7l35.7-33.2c1.4-1.3 4-1.9 5.8-1.3l49.7 15.3c1.8 0.6 3.6 2.5 4.1 4.4l10.9 47.5c0.4 1.8-0.4 4.4-1.8 5.7l-38.1 35.4c-1.4 1.3-4 1.9-5.8 1.3z" fill="#0082c9"/><g fill="#fff"><path class="st1" d="m79.6 383.8c0.4-1.3-0.3-2.6-1.6-3l-37.2-11.4c-1.3-0.4-2.6 0.3-3 1.6l-6.2 20.1c-0.4 1.3 0.3 2.6 1.6 3l37.2 11.4c1.3 0.4 2.6-0.3 3-1.6z"/><path class="st1" d="m53.7 317.8c-0.9-1-2.4-1-3.4-0.1l-28.5 26.5c-1 0.9-1 2.4-0.1 3.4l14.3 15.4c0.9 1 2.4 1 3.4 0.1l28.5-26.5c1-0.9 1-2.4 0.1-3.4z"/><path class="st1" d="m99.2 332.7c-0.3-1.3-1.6-2.1-2.9-1.8l-20.5 4.7c-1.3 0.3-2.1 1.6-1.8 2.9l8.7 37.9c0.3 1.3 1.6 2.1 2.9 1.8l20.5-4.7c1.3-0.3 2.1-1.6 1.8-2.9z"/><path class="st1" d="m85.7 381.3c-1.3 0.3-2.7 1.6-3.1 2.8l-5.2 16.8c-0.4 1.3 0.1 1.6 1.1 0.7l24.9-23.1c1-0.9 0.7-1.4-0.6-1.1z"/><path class="st1" d="m22.2 352.6c-0.9-1-1.4-0.7-1.1 0.6l7.6 33.1c0.3 1.3 0.9 1.3 1.2 0l5.2-16.8c0.4-1.3 0-3.1-0.9-4.1z"/><path class="st1" d="m59.3 317.7c-1.3-0.4-1.6 0.1-0.7 1.1l12 12.9c0.9 1 2.7 1.5 4 1.2l17.1-3.9c1.3-0.3 1.3-0.9 0-1.2z"/><path class="st1" d="m71.4 340.2c-0.3-1.3-1.3-1.6-2.3-0.7l-26.9 25c-1 0.9-0.7 2 0.5 2.4l35.1 10.8c1.3 0.4 2.1-0.3 1.8-1.6z"/></g></g></svg>
