<?xml version="1.0" encoding="UTF-8" standalone="no"?>
<svg xmlns="http://www.w3.org/2000/svg"
     version="1.2"
     width="122"
     height="77">
    <g transform="scale(1.2,0.75)">
        <g>
            <path style="fill:#ffe040;stroke:none"
                  d="m 0,0 100,0 q 0,0 0,0 l 0,100 q 0,0 0,0 L 0,100 q 0,0 0,0 L 0,0 q 0,0 0,0 z"/>
            <g transform="scale(0.83333333,1.3333333)">
                <path style="fill:none;stroke:none"
                      d="m 0,0 120,0 q 0,0 0,0 l 0,75 q 0,0 0,0 L 0,75 q 0,0 0,0 L 0,0 q 0,0 0,0 z"/>
                <path style="fill:none;stroke:#333333;stroke-width:2;stroke-miterlimit:10"
                      stroke-miterlimit="10"
                      d="m 0,0 m 0,0 120,0 q 0,0 0,0 l 0,75 q 0,0 0,0 L 0,75 q 0,0 0,0 L 0,0 q 0,0 0,0 z"/>
            </g>
        </g>
    </g>
</svg>
