<?xml version="1.0" encoding="UTF-8" standalone="no"?>
<svg xmlns="http://www.w3.org/2000/svg"
     version="1.1"
     width="122"
     height="77">
    <rect style="fill:#808080;fill-opacity:1;stroke:none"
          id="rect4132"
          width="1.5"
          height="43.36071"
          x="54.938202"
          y="11.771317"/>
    <path style="fill:#808080;fill-opacity:1;stroke:none"
          id="path5310"
          d="m 62.199437,13.943819 a 7.025281,7.025281 0 1 1 -14.050562,0 7.025281,7.025281 0 1 1 14.050562,0 z"
          transform="translate(0.51404495,-1.3707865)"/>
    <rect style="fill:#808080;fill-opacity:1;stroke:none"
          id="rect4132-3"
          width="1.5"
          height="16.901047"
          x="33.241573"
          y="-72.456474"
          transform="matrix(0,1,-1,0,0,0)"/>
    <rect style="fill:#808080;fill-opacity:1;stroke:none"
          id="rect4132-3-0"
          width="1.5"
          height="18.067436"
          x="53.632027"
          y="-73.127823"
          transform="matrix(0,1,-1,0,0,0)"/>
    <rect style="fill:#84ff7e;fill-opacity:1;stroke:#000000;stroke-width:1;stroke-miterlimit:4;stroke-opacity:1;stroke-dasharray:none"
          id="rect3059-2"
          width="11.513616"
          height="11.513616"
          x="64.60836"
          y="48.625217"/>
    <rect style="fill:#ffe040;fill-opacity:1;stroke:#000000;stroke-width:0.721185;stroke-miterlimit:4;stroke-dasharray:none;stroke-opacity:1"
          id="rect3004"
          width="24.135254"
          height="14.849995"
          x="64.427963"
          y="26.545322"/>
    <rect style="fill:#000000;fill-opacity:1;stroke:none;stroke-width:0.360592"
          id="rect3767"
          width="5.5891843"
          height="0.54088879"
          x="66.041878"
          y="28.216309"/>
    <rect style="fill:#000000;fill-opacity:1;stroke:none;stroke-width:0.360592"
          id="rect3767-6"
          width="5.5891843"
          height="0.54088879"
          x="66.041878"
          y="29.350021"/>
    <rect style="fill:#000000;fill-opacity:1;stroke:none;stroke-width:0.360592"
          id="rect3767-5"
          width="5.5891843"
          height="0.54088879"
          x="66.041878"
          y="30.483734"/>
    <rect style="fill:#000000;fill-opacity:1;stroke:none;stroke-width:0.360592"
          id="rect3767-54"
          width="12.346087"
          height="0.36059257"
          x="72.129448"
          y="35.522289"/>
    <rect style="fill:#000000;fill-opacity:1;stroke:none;stroke-width:0.360592"
          id="rect3767-6-0"
          width="12.346087"
          height="0.36059257"
          x="72.129448"
          y="36.656002"/>
    <rect style="fill:#000000;fill-opacity:1;stroke:none;stroke-width:0.360592"
          id="rect3767-5-8"
          width="12.346087"
          height="0.36059257"
          x="72.129448"
          y="37.789715"/>
    <rect style="fill:#ededed;fill-opacity:1;stroke:#000000;stroke-width:0.360592;stroke-opacity:1"
          id="rect3818"
          width="2.2947969"
          height="2.4860299"
          x="84.676933"
          y="27.885685"/>
</svg>
