<svg xmlns="http://www.w3.org/2000/svg" viewBox="0 0 512 512">
    <path d="M464 128H272l-54.63-54.63c-6-6-14.14-9.37-22.63-9.37H48C21.49 64 0 85.49 0 112v288c0 26.51 21.49 48 48 48h416c26.51 0 48-21.49 48-48V176c0-26.51-21.49-48-48-48zm0 272H48V112h140.12l54.63 54.63c6 6 14.14 9.37 22.63 9.37H464v224z"/>
    <g transform="translate(150,210) scale(1)">
        <path class="cls-1"
              d="M97.1281,80.6269a10.009,10.009,0,0,1-1.958-.19336l-5.28394-1.05493,4.54859,27.98315a9.92429,9.92429,0,0,1,.12988,1.60449h5.126a9.9997,9.9997,0,0,1,.16308-1.79736l5.09815-27.90643L99.0861,80.43354A10.00892,10.00892,0,0,1,97.1281,80.6269Z"/>
        <path class="cls-1"
              d="M173.6956,0H20.56071A20.62105,20.62105,0,0,0,0,20.56067V138.52845a20.62106,20.62106,0,0,0,20.56067,20.56067H173.6956a20.621,20.621,0,0,0,20.56055-20.56067V20.56067A20.621,20.621,0,0,0,173.6956,0Zm3.455,41.581-2.502,17a10.0006,10.0006,0,0,1-7.93554,8.35058L126.04545,75.051c-.007.04071-.00854.08106-.016.12177l-6.36621,34.85058A20.0265,20.0265,0,0,1,99.6906,128.96625h-5.126a20.02587,20.02587,0,0,1-19.97852-19.0581L68.94475,75.19758l-41.40162-8.266A10.0006,10.0006,0,0,1,19.60759,58.581l-2.502-17a10.00013,10.00013,0,0,1,19.78711-2.91211l1.47559,10.0293L97.1281,60.42963l58.75976-11.73144,1.47559-10.0293A10.00013,10.00013,0,0,1,177.15056,41.581Z"/>
    </g>
</svg>