<svg width="50px" height="50px" version="1.1" viewBox="0 0 50 50" xmlns="http://www.w3.org/2000/svg"><g stroke-width=".96235"><path id="outline_4_" d="m28.756 19.979h4.3036v4.3989h2.1759c1.0047 0 2.0383-0.179 2.99-0.50138 0.4677-0.15879 0.99218-0.37917 1.4531-0.65632-0.60724-0.79298-0.91712-1.7948-1.0085-2.7812-0.12414-1.3425 0.14724-3.0901 1.0557-4.141l0.4523-0.52352 0.53892 0.43306c1.3569 1.0903 2.4983 2.6137 2.6994 4.3508 1.6341-0.48021 3.553-0.36665 4.9927 0.46481l0.59088 0.34067-0.31084 0.60724c-1.2183 2.377-3.7647 3.1142-6.2543 2.9833-3.7252 9.2799-11.837 13.673-21.672 13.673-5.0812 0-9.7428-1.8997-12.397-6.4073l-0.043306-0.074101-0.38686-0.7872c-0.89691-1.9844-1.1952-4.1583-0.99314-6.3303l0.060628-0.65055h3.68v-4.3989h4.3027v-4.3036h8.6063v-4.3027h5.164z" clip-rule="evenodd" fill="#394d54" fill-rule="evenodd"/><path d="m42.699 21.606c0.2887-2.2423-1.3896-4.0034-2.4299-4.8396-1.1991 1.3867-1.3858 5.0206 0.49561 6.5507-1.0499 0.93252-3.2624 1.7784-5.5287 1.7784h-27.579c-0.22038 2.3655 0.19536 4.5432 1.1433 6.4073l0.31373 0.57356c0.19824 0.33682 0.41573 0.6621 0.65055 0.97582 1.1336 0.07314 2.1788 0.09816 3.1353 0.07699h9.62e-4c1.8795-0.04138 3.4134-0.26368 4.575-0.66594 0.17322-0.05967 0.36184 0.03176 0.42151 0.20402 0.05967 0.17322-0.03176 0.36184-0.20498 0.42151-0.15494 0.05389-0.31565 0.10393-0.48214 0.15109h-9.62e-4c-0.91519 0.2608-1.8968 0.43691-3.1623 0.51582 0.07506 9.63e-4 -0.07795 0.01155-0.07891 0.01155-0.04331 0.0029-0.0972 0.0087-0.1405 0.01155-0.4985 0.02791-1.0364 0.03368-1.586 0.03368-0.60147 0-1.1943-0.01155-1.8564-0.04523l-0.01732 0.01155c2.2981 2.5829 5.8905 4.1314 10.394 4.1314 9.5321 0 17.617-4.2257 21.197-13.712 2.5396 0.2608 4.9811-0.38686 6.0917-2.555-1.7678-1.0211-4.0419-0.69578-5.3516-0.03753z" fill="#00aada"/><path d="m42.699 21.606c0.2887-2.2423-1.3896-4.0034-2.4299-4.8396-1.1991 1.3867-1.3858 5.0206 0.49561 6.5507-1.0499 0.93252-3.2624 1.7784-5.5287 1.7784h-25.946c-0.11259 3.6223 1.2318 6.3717 3.6098 8.0337h9.62e-4c1.8795-0.04138 3.4134-0.26368 4.575-0.66594 0.17322-0.05967 0.36184 0.03176 0.42151 0.20402 0.05967 0.17322-0.03176 0.36184-0.20498 0.42151-0.15494 0.05389-0.31565 0.10393-0.48214 0.15109h-9.62e-4c-0.91519 0.2608-1.9805 0.46-3.247 0.53795l-0.03079-0.02887c3.2441 1.6639 7.9471 1.6581 13.34-0.41381 6.0464-2.3231 11.673-6.7489 15.6-11.811-0.05967 0.02598-0.11741 0.05389-0.17226 0.0818z" fill="#24b8eb"/><path d="m7.7085 27.968c0.1713 1.2664 0.5418 2.453 1.0913 3.5337l0.31373 0.57356c0.19824 0.33682 0.41573 0.6621 0.65055 0.97582 1.1336 0.07314 2.1797 0.09816 3.1363 0.07699 1.8795-0.04138 3.4134-0.26368 4.575-0.66594 0.17322-0.05967 0.36184 0.03176 0.42151 0.20402 0.05967 0.17322-0.03176 0.36184-0.20498 0.42151-0.15494 0.05389-0.31565 0.10393-0.48214 0.15109h-9.62e-4c-0.91519 0.2608-1.9757 0.44846-3.2412 0.5264-0.04331 0.0029-0.11933 0.0029-0.16264 0.0058-0.4985 0.02791-1.0307 0.04523-1.5802 0.04523-0.60147 0-1.2164-0.01155-1.8785-0.04523 2.2981 2.5829 5.9136 4.1371 10.417 4.1371 8.1597 0 15.259-3.0978 19.38-9.9411h-32.435z" fill="#008bb8"/><path d="m9.538 27.968c0.48791 2.224 1.6601 3.9706 3.3615 5.1601 1.8795-0.04138 3.4134-0.26368 4.575-0.66594 0.17322-0.05967 0.36184 0.03176 0.42151 0.20402 0.05967 0.17322-0.03176 0.36184-0.20498 0.42151-0.15494 0.05389-0.31565 0.10393-0.48214 0.15109h-9.63e-4c-0.91519 0.2608-1.9978 0.44846-3.2643 0.5264 3.2431 1.6639 7.9336 1.6398 13.326-0.43113 3.2624-1.253 6.4015-3.119 9.2183-5.3661z" fill="#039bc6"/></g><g clip-rule="evenodd" fill-rule="evenodd" stroke-width=".96235"><path d="m14.524 21.007h0.29448v3.1084h-0.29448zm-0.5649 0h0.30603v3.1084h-0.30603zm-0.5649 0h0.30603v3.1084h-0.30603zm-0.56586 0h0.30603v3.1084h-0.30603zm-0.5649 0h0.30603v3.1084h-0.30603zm-0.55335 0h0.29448v3.1084h-0.29448zm-0.30988-0.31084h3.7291v3.7301h-3.7291z" fill="#00acd3"/><path d="m18.827 16.703h0.29448v3.1084h-0.29448zm-0.5649 0h0.30603v3.1084h-0.30603zm-0.56586 0h0.30603v3.1084h-0.30603zm-0.5649 0h0.30603v3.1084h-0.30603zm-0.5649 0h0.30603v3.1084h-0.30603zm-0.55335 0h0.29448v3.1084h-0.29448zm-0.31084-0.31084h3.7301v3.7291h-3.7301z" fill="#00acd3"/><path d="m18.827 21.007h0.29448v3.1084h-0.29448zm-0.5649 0h0.30603v3.1084h-0.30603zm-0.56586 0h0.30603v3.1084h-0.30603zm-0.5649 0h0.30603v3.1084h-0.30603zm-0.5649 0h0.30603v3.1084h-0.30603zm-0.55335 0h0.29448v3.1084h-0.29448zm-0.31084-0.31084h3.7301v3.7301h-3.7301z" fill="#20c2ef"/><path d="m23.131 21.007h0.29448v3.1084h-0.29448zm-0.56586 0h0.30603v3.1084h-0.30603zm-0.5649 0h0.30603v3.1084h-0.30603zm-0.5649 0h0.30603v3.1084h-0.30603zm-0.5649 0h0.30603v3.1084h-0.30603zm-0.55335 0h0.29448v3.1084h-0.29448zm-0.31084-0.31084h3.7301v3.7301h-3.7301z" fill="#00acd3"/><path d="m23.131 16.703h0.29448v3.1084h-0.29448zm-0.56586 0h0.30603v3.1084h-0.30603zm-0.5649 0h0.30603v3.1084h-0.30603zm-0.5649 0h0.30603v3.1084h-0.30603zm-0.5649 0h0.30603v3.1084h-0.30603zm-0.55335 0h0.29448v3.1084h-0.29448zm-0.31084-0.31084h3.7301v3.7291h-3.7301z" fill="#20c2ef"/><path d="m27.434 21.007h0.29448v3.1084h-0.29448zm-0.5649 0h0.30603v3.1084h-0.30603zm-0.5649 0h0.30603v3.1084h-0.30603zm-0.5649 0h0.30603v3.1084h-0.30603zm-0.56586 0h0.30603v3.1084h-0.30603zm-0.55335 0h0.29448v3.1084h-0.29448zm-0.31084-0.31084h3.7301v3.7301h-3.7301z" fill="#20c2ef"/><path d="m27.434 16.703h0.29448v3.1084h-0.29448zm-0.5649 0h0.30603v3.1084h-0.30603zm-0.5649 0h0.30603v3.1084h-0.30603zm-0.5649 0h0.30603v3.1084h-0.30603zm-0.56586 0h0.30603v3.1084h-0.30603zm-0.55335 0h0.29448v3.1084h-0.29448zm-0.31084-0.31084h3.7301v3.7291h-3.7301z" fill="#00acd3"/><path d="m27.434 12.4h0.29448v3.1084h-0.29448zm-0.5649 0h0.30603v3.1084h-0.30603zm-0.5649 0h0.30603v3.1084h-0.30603zm-0.5649 0h0.30603v3.1084h-0.30603zm-0.56586 0h0.30603v3.1084h-0.30603zm-0.55335 0h0.29448v3.1084h-0.29448zm-0.31084-0.31084h3.7301v3.7301h-3.7301z" fill="#20c2ef"/><path d="m31.737 21.007h0.29448v3.1084h-0.29448zm-0.5649 0h0.30603v3.1084h-0.30603zm-0.56586 0h0.30603v3.1084h-0.30603zm-0.5649 0h0.30603v3.1084h-0.30603zm-0.5649 0h0.30603v3.1084h-0.30603zm-0.55335 0h0.29448v3.1084h-0.29448zm-0.31084-0.31084h3.7301v3.7301h-3.7301z" fill="#00acd3"/><path d="m19.199 30.472c0.56779 0 1.0288 0.46096 1.0288 1.0288 0 0.56778-0.46096 1.0288-1.0288 1.0288-0.56875 0-1.0288-0.46096-1.0288-1.0288 0-0.56779 0.46096-1.0288 1.0288-1.0288" fill="#d4edf1"/><path d="m19.199 30.764c0.09431 0 0.18381 0.01732 0.26657 0.05004-0.0895 0.05197-0.15013 0.14916-0.15013 0.2608 0 0.16649 0.13473 0.30025 0.30122 0.30025 0.11356 0 0.21268-0.06351 0.26368-0.15686 0.03561 0.08661 0.05582 0.18285 0.05582 0.28293 0 0.40707-0.33008 0.73716-0.73716 0.73716-0.40707 0-0.73716-0.33008-0.73716-0.73716 0-0.40707 0.33008-0.73716 0.73716-0.73716" fill="#394d54"/><path d="m1 28.34h47.863c-1.0422-0.26465-3.297-0.62168-2.9255-1.9872-1.8949 2.1932-6.4651 1.5388-7.6179 0.45712-1.2847 1.8631-8.7612 1.1548-9.2828-0.2964-1.61 1.8901-6.5998 1.8901-8.2098 0-0.52159 1.4512-7.9981 2.1595-9.2828 0.2964-1.1529 1.0817-5.7231 1.7361-7.6179-0.45712 0.37147 1.3665-1.8843 1.7236-2.9265 1.9872" fill="#394d54"/></g><path d="m21.934 37.886c-2.5483-1.2087-3.9466-2.8524-4.7251-4.6472-0.94695 0.27042-2.0844 0.44268-3.4058 0.51678-0.4985 0.02791-1.022 0.04234-1.5715 0.04234-0.63322 0-1.3021-0.01828-2.0026-0.05582 2.3366 2.3356 5.2111 4.1333 10.534 4.166 0.39264 9.62e-4 0.78335-0.0067 1.1712-0.02213z" fill="#bfdbe0" stroke-width=".96235"/><path d="m18.156 34.895c-0.35222-0.47829-0.69482-1.0798-0.94599-1.6562-0.94695 0.27042-2.0844 0.44268-3.4067 0.51774 0.90846 0.49272 2.2067 0.94888 4.3527 1.1385z" fill="#d4edf1" stroke-width=".96235"/></svg>
