<svg width="130" height="130" version="1.1" viewBox="0 0 130 130" xml:space="preserve" xmlns="http://www.w3.org/2000/svg"><path id="XMLID_107_" d="m65.087 39.076c-11.805 0-21.811 8.0032-24.912 18.847-2.6952-5.7515-8.5359-9.7809-15.263-9.7809-9.2518 0-16.857 7.6052-16.857 16.857 0 9.2518 7.6052 16.861 16.857 16.861 6.7274 0 12.568-4.0319 15.263-9.7844 3.1012 10.844 13.107 18.85 24.912 18.85 11.718 0 21.673-7.8851 24.853-18.607 2.745 5.6219 8.5134 9.5413 15.145 9.5413 9.2518 0 16.861-7.6087 16.861-16.861 0-9.2518-7.6087-16.857-16.861-16.857-6.6319 0-12.4 3.917-15.145 9.5379-3.1805-10.721-13.135-18.604-24.853-18.604zm0 9.8955c8.9116 0 16.031 7.1156 16.031 16.027 0 8.9116-7.1191 16.031-16.031 16.031-8.9116 0-16.027-7.1191-16.027-16.031 0-8.9116 7.1156-16.027 16.027-16.027zm-40.176 9.0657c3.9044 0 6.965 3.0572 6.965 6.9616 0 3.9044-3.0607 6.965-6.965 6.965-3.9044 0-6.9616-3.0607-6.9616-6.965 0-3.9044 3.0572-6.9616 6.9616-6.9616zm80.174 0c3.9044 0 6.965 3.0572 6.965 6.9616 0 3.9044-3.0607 6.965-6.965 6.965-3.9044 0-6.9616-3.0607-6.9616-6.965 0-3.9044 3.0572-6.9616 6.9616-6.9616z" fill="#0082c9" color-rendering="auto" enable-background="accumulate" image-rendering="auto" shape-rendering="auto" style="isolation:auto;mix-blend-mode:normal;text-decoration-color:#000000;text-decoration-line:none;text-decoration-style:solid;text-indent:0;text-transform:none;white-space:normal"/></svg>
