<svg width="380" height="380" version="1.1" viewBox="0 0 380 380" xmlns="http://www.w3.org/2000/svg"><g transform="translate(2.8109e-5 -3.7172)"><g transform="translate(20 1.8586)"><path d="m65.412 155.07s24.668-21.474 97.677-21.474c66.978 0 85.8 15.194 104.92 21.474l-99.736 48.735z" fill="#c9781f"/><g transform="matrix(.63926 0 0 .63926 -21.039 -84.875)"><path d="m118.95 476.46c0.707 14.572 15.264 7.83 21.858 3.274 6.259-4.325 8.089-0.73 8.638-9.266 0.36-5.61 1.007-11.22 0.688-16.853-9.464-0.858-19.759 1.396-27.518 7.033-3.996 2.905-11.49 12.174-3.666 15.812" fill="#f6d2a2"/><path d="m118.95 476.46c2.119-0.788 4.364-1.348 5.802-3.264" fill="#c6b198"/><path d="m152.59 302.86c-55.784-15.687-14.304-86.654 30.492-57.464z" fill="#37abc8"/><path d="m400.44 240.07c44.155-31.014 84.056 38.959 32.74 56.565z" fill="#37abc8"/><path d="m409.93 655.8c11.216 6.94 31.716 27.923 14.891 38.098-16.166 14.802-25.214-16.247-39.403-20.549 6.111-8.298 13.856-15.865 24.512-17.549z" fill="#f6d2a2"/><path d="m424.82 693.9c-2.494-4.96-3.332-10.748-7.496-14.746" fill="none"/><path d="m209.56 679.51c-13.164 2.037-20.574 13.914-31.548 19.945-10.341 6.166-14.297-1.974-15.229-3.627-1.621-0.739-1.485 0.688-3.987-1.831-9.587-15.13 9.989-26.189 20.182-33.705 14.198-2.871 23.096 9.438 30.582 19.218z" fill="#f6d2a2"/><path d="m162.78 695.83c0.501-5.766 5.074-9.628 7.251-14.504" fill="none"/><path d="m154.92 283.26c-7.36-3.893-12.759-9.18-8.257-17.693 4.168-7.88 11.911-7.025 19.271-3.132z" fill="#077e91"/><path d="m421.55 275.86c7.36-3.893 12.759-9.18 8.257-17.693-4.168-7.881-11.91-7.025-19.271-3.132z" fill="#077e91"/><path d="m472.21 474.61c-0.707 14.572-15.264 7.83-21.858 3.274-6.259-4.325-8.089-0.73-8.638-9.265-0.36-5.61-1.007-11.22-0.688-16.853 9.464-0.858 19.759 1.396 27.518 7.033 3.996 2.904 11.49 12.174 3.666 15.811" fill="#f6d2a2"/><path d="m472.21 474.61c-2.119-0.788-4.364-1.348-5.802-3.264" fill="#c6b198"/><path d="m289.99 210.6c55.847 0 108.2 7.987 135.49 61.642 24.496 60.141 15.785 124.99 19.521 188.55 3.208 54.577 10.322 117.63-14.997 168.2-26.635 53.21-93.191 66.595-148.03 64.634-43.071-1.541-95.101-15.593-119.41-54.944-28.519-46.165-15.017-114.81-12.946-166.18 2.454-60.849-16.482-121.88 3.508-181.42 20.737-61.765 76.665-75.724 136.86-80.486" fill="#37abc8"/><g fill="#fff"><path d="m299.85 285.57c10.027 58.288 105.3 42.877 91.619-15.91-12.271-52.716-94.951-38.124-91.619 15.91"/><path d="m185.99 294.99c12.996 50.745 94.24 37.753 91.178-13.149-3.669-60.964-103.6-49.2-91.178 13.149"/><path d="m318.34 353.51c0.044 7.79 1.843 15.403 0.289 24.148-1.935 3.656-5.729 4.043-9.001 5.52-4.524-0.71-8.328-3.68-10.143-7.912-1.161-9.202 0.433-18.111 0.726-27.316z"/></g><ellipse cx="208.4" cy="286.72" rx="13.719" ry="14.86"/><ellipse cx="214.64" cy="290.07" rx="3.234" ry="3.777" fill="#fff"/><ellipse cx="323.35" cy="283.02" rx="13.491" ry="14.86"/><ellipse cx="329.48" cy="286.37" rx="3.181" ry="3.777" fill="#fff"/><path d="m279.14 354.68c-5.986 14.507 3.338 43.515 19.579 22.119-1.161-9.202 0.433-18.111 0.726-27.316z" fill="#fff"/><path d="m278.18 326.75c-11.156 0.951-20.276 14.216-14.475 24.71 7.682 13.9 24.828-1.23 35.507 0.188 12.291 0.252 22.361 12.996 32.233 2.304 10.979-11.892-4.727-23.474-17.002-28.652z" fill="#f6d2a2"/></g><g transform="matrix(.63926 0 0 .63926 -21.039 -84.875)"><path d="m135.24 375.35s3.532 38.261 3.29 54.754c-0.242 16.492 15.56 6.079 16.38 32.016s-9.572 21.018-15.047 33.713c-5.475 12.694-9.196 72.145-9.196 72.145s5.618 11.108 23.166 21.11 45.765 15.62 70.198 14.513 41.885-6.341 46.249-9.236c4.363-2.894 11.605-12.05 14.329-19.131s8.415-65.402 8.018-98.775-5.911-64.166-5.911-64.166z" fill="#ef9325"/><path d="m290.01 537.84c-71.952 8.032-155.44-14.172-155.44-14.172s1.226-22.521 6.626-30.447c74.833 23.185 150.33 15.834 150.33 15.834 1.12 10.514 0.331 18.872-1.516 28.785z" fill="#e5e5e5"/><path d="m280.95 582.23c-71.952 8.032-150.29-15.064-150.29-15.064s-0.251-21.631 2.607-31.13c74.833 23.185 154.76 17.407 154.76 17.407-0.673 11.413-2.278 22.646-7.083 28.787z" fill="#e5e5e5"/></g><g transform="matrix(.63926 0 0 .63926 -21.039 -84.875)"><path d="m452.16 375.35s-0.488 38.261-0.243 54.754c0.245 16.492-9.578 6.079-10.409 32.016s9.692 21.018 15.236 33.713c5.544 12.694 9.312 72.145 9.312 72.145s-5.689 11.108-23.457 21.11-46.34 15.62-71.08 14.513-42.411-6.341-46.83-9.236-11.751-12.05-14.509-19.131-8.521-65.402-8.119-98.775 5.985-64.166 5.985-64.166z" fill="#ef9325"/><path d="m304.71 537.84c72.856 8.032 157.39-14.172 157.39-14.172s-1.242-22.521-6.709-30.447c-75.774 23.185-152.22 15.834-152.22 15.834-1.134 10.514-0.335 18.872 1.535 28.785z" fill="#e5e5e5"/><path d="m313.88 582.23c72.856 8.032 152.18-15.064 152.18-15.064s0.254-21.631-2.64-31.13c-75.774 23.185-156.71 17.407-156.71 17.407 0.682 11.413 2.307 22.646 7.172 28.787z" fill="#e5e5e5"/></g><g transform="matrix(.63926 0 0 .63926 -21.039 -84.875)"><path d="m481.22 445.52c-2.264 4.272-6.745 6.334-10.009 4.604l-2.615-1.385c-3.264-1.729-4.076-6.595-1.812-10.867l50.985-96.234c2.263-4.272 6.745-6.334 10.009-4.604l2.615 1.385c3.264 1.729 4.076 6.595 1.812 10.867z" fill="#d2e261"/><path d="m457.14 490.97c-1.319 2.489-5.034 3.105-8.298 1.375l-2.615-1.385c-3.264-1.729-4.842-5.149-3.523-7.638l23.92-45.149c1.319-2.489 5.034-3.105 8.298-1.375l2.615 1.385c3.264 1.729 4.842 5.149 3.523 7.638z"/><path d="m478.41 436.54-2.615-1.385c-3.264-1.729-6.604-1.823-7.459-0.21l-1.529 2.886c0.855-1.614 4.194-1.52 7.459 0.21l2.615 1.385c3.264 1.729 5.218 4.44 4.363 6.053l1.529-2.886c0.855-1.613-1.099-4.323-4.363-6.053z" fill="#9b9b9b"/></g><ellipse transform="matrix(.59912 .22297 -.22297 .59912 100.48 -168.17)" cx="456.84" cy="462.66" rx="11.224" ry="8.683" fill="#f6d2a2"/><g transform="matrix(.63926 0 0 .63926 -21.039 -84.875)"><path d="m111.78 447.08c2.065 4.372 6.447 6.637 9.787 5.059l2.675-1.264c3.34-1.578 4.374-6.401 2.309-10.773l-46.518-98.471c-2.065-4.372-6.447-6.637-9.787-5.059l-2.675 1.264c-3.34 1.578-4.374 6.401-2.309 10.773z" fill="#d2e261"/><path d="m133.75 493.58c1.203 2.547 4.886 3.332 8.227 1.755l2.675-1.264c3.34-1.578 5.073-4.922 3.869-7.469l-21.825-46.199c-1.203-2.547-4.886-3.332-8.227-1.755l-2.675 1.264c-3.34 1.578-5.073 4.922-3.869 7.469z"/><path d="m115 438.23 2.675-1.264c3.34-1.578 6.68-1.519 7.46 0.132l1.395 2.954c-0.78-1.651-4.12-1.71-7.46-0.133l-2.675 1.264c-3.34 1.578-5.416 4.196-4.636 5.847l-1.395-2.954c-0.779-1.65 1.296-4.268 4.636-5.846z" fill="#9b9b9b"/></g><ellipse transform="matrix(-.59912 .22297 -.22297 -.59912 252.77 458.95)" cx="137.56" cy="463.92" rx="11.224" ry="8.683" fill="#f6d2a2"/><g transform="matrix(.63926 0 0 .63926 -21.039 -84.875)"><path d="m159.13 324.73c-2.218 4.033-7.45 5.414-11.687 3.084l-4.873-2.679c-4.237-2.33-5.873-7.488-3.656-11.521l50.714-92.23c2.218-4.033 7.45-5.414 11.687-3.084l4.873 2.679c4.237 2.33 5.33 6.689 3.656 11.521-17.765 51.258-50.714 92.23-50.714 92.23z" fill="#960000"/><path d="m172.55 272.05c15.422-28.047 25.555-52.169 23.141-54.905l0.057-0.103c-0.066-0.036-0.136-0.06-0.202-0.096-8e-3 -5e-3 -0.01-0.021-0.019-0.026l-7e-3 0.014c-23.699-12.841-55.583-0.124-71.334 28.522s-9.41 62.381 14.128 75.514l-7e-3 0.014c9e-3 5e-3 0.023-2e-3 0.032 2e-3 0.066 0.037 0.123 0.083 0.189 0.119l0.057-0.103c3.602 0.573 18.543-20.905 33.965-48.952z" fill="#595959"/><path d="m426.69 324.92c2.1 4.095 7.291 5.627 11.593 3.42l4.948-2.538c4.302-2.206 6.087-7.315 3.987-11.41l-48.031-93.655c-2.1-4.095-7.291-5.627-11.593-3.42l-4.948 2.538c-4.302 2.206-5.521 6.533-3.987 11.41 16.279 51.749 48.031 93.655 48.031 93.655z" fill="#960000"/><path d="m414.8 271.88c-14.606-28.48-24.039-52.885-21.547-55.55l-0.054-0.105c0.067-0.034 0.138-0.056 0.205-0.09 9e-3 -5e-3 0.011-0.021 0.02-0.025l7e-3 0.014c24.059-12.152 55.563 1.48 70.481 30.569s7.606 62.627-16.301 75.075l7e-3 0.014c-9e-3 4e-3 -0.023-3e-3 -0.032 1e-3 -0.067 0.035-0.125 0.08-0.192 0.114l-0.054-0.105c-3.618 0.468-17.934-21.432-32.54-49.912z" fill="#595959"/><path d="m462.36 259.87s-17.746-44.446-38.326-67.945c-20.58-23.498-221.94-31.512-255 0s-45.533 67.945-45.533 67.945v-9.844s15.295-43.268 45.533-67.945 228.95-23.378 254.58 0c25.635 23.378 38.747 67.945 38.747 67.945z" fill="#353535"/><ellipse transform="matrix(-.8898 .4563 -.4563 -.8898 986.53 258.2)" cx="462.09" cy="248.21" rx="6.949" ry="16.975" fill="#960000"/><ellipse transform="matrix(.8763 .4818 -.4818 .8763 134.61 -30.126)" cx="125.96" cy="247.03" rx="6.949" ry="16.975" fill="#960000"/></g><g transform="matrix(.63926 0 0 .63926 -21.039 -84.875)" fill="#fff"><path d="m386.49 250.49h-187.81c-33.72 0-33.604 89.606-1.945 94.771l65.466-4.21c7.915 0 23.719-30.655 26.684-33.065s12.729-2.704 16.575 0 12.593 29.976 20.507 29.976l65.466 7.298c30.579-14.072 22.87-94.77-4.943-94.77z" opacity=".6"/><path d="m248.54 269.02c-20.685-0.462-53.05-0.274-70.729-0.13-2.964 9.719-6.269 22.024-4.63 33.972 16.056 0 50.96 0.078 75.782 0.078 14.946 0 27.512 2.82 39.198 5.875 0.288-0.368 0.53-0.639 0.719-0.792 2.965-2.41 12.729-2.704 16.575 0 0.995 0.7 2.323 3.058 3.874 6.149 5.967 1.258 11.943 2.127 18.153 2.205 16.915 0.214 56.557 0.146 82.066 0.074 3.249-10.857 0.853-22.495 0.125-33.432-24.906 0-64.487-0.562-83.463-0.562-26.738-1e-3 -50.083-12.821-77.67-13.437z" opacity=".5"/></g><path d="m155.9 123.63c-0.52803-12.356 23.029-13.9 25.811-3.5581 2.775 10.318-24.651 12.715-25.811 3.5581-0.92565-7.3112 0 0 0 0z"/></g></g></svg>
